# xmcd CD database file
# Copyright (C) 1993-1998 Ti Kan
#
# Track frame offsets:
#	150
#	13925
#	28462
#	43250
#	57550
#	69600
#	81025
#	93727
#	107900
#	121187
#	134400
#	148637
#	163087
#	175512
#	188325
#	200450
#	214700
#	228212
#
# Disc length: 3250 seconds
#
# Revision: 1
# Processed by: cddbd v1.4b41PL1 Copyright (c) Steve Scherf et al.
# Submitted via: CDValet v3.31 - Copyright (c) 1997 Greg Leichner
#
DISCID=050cb012
DTITLE=Washboard Sam - Washboard Sam  1935 - 1947
DYEAR=1900
DGENRE=
TTITLE0=Who Pumped The Wind In My Doughnut
TTITLE1=Easy Ridin' Mama
TTITLE2=Ladie's Man
TTITLE3=My Woman's A Sender
TTITLE4=It's Too Late Now
TTITLE5=Barbecue
TTITLE6=Suspicious Blues
TTITLE7=Hand Reader Blues
TTITLE8=Rack'Em Back
TTITLE9=Somebody Chaned That Lock On My Door
TTITLE10=Good Luck Blues
TTITLE11=She's A Bad Luck Woman
TTITLE12=She's All In My Life
TTITLE13=He's A Creepin' Man
TTITLE14=Down At The Bad Man's Hall
TTITLE15=Traveling Man
TTITLE16=Don't Have To Sing The Blues
TTITLE17=You Can't Have None of That
EXTD=Submitted By WinSkol\n\nBlues\n
EXTT0=
EXTT1=
EXTT2=
EXTT3=
EXTT4=
EXTT5=
EXTT6=
EXTT7=
EXTT8=
EXTT9=
EXTT10=
EXTT11=
EXTT12=
EXTT13=
EXTT14=
EXTT15=
EXTT16=
EXTT17=
PLAYORDER=
